<svg xmlns="http://www.w3.org/2000/svg" width="12" height="54.08" viewBox="0 0 12 54.08" role="img" aria-label="Chromosome 15 ideogram">
<title>Chromosome 15 ideogram</title>
<defs><clipPath id="chr15-body"><rect width="12" height="54.08" rx="6" ry="6"/></clipPath></defs>
<g clip-path="url(#chr15-body)"><rect y="0" width="12" height="2.23" fill="#b8c6e0"/><rect y="2.23" width="12" height="2.92" fill="#8aa0bf"/><rect y="5.14" width="12" height="4.14" fill="#b8c6e0"/><path d="M0,9.28 H12 L6,10.08 Z" fill="#b03a34"/><path d="M6,10.07 L12,10.87 H0 Z" fill="#b03a34"/><rect y="10.87" width="12" height="2.65" fill="#f7f7f7"/><rect y="13.52" width="12" height="1.22" fill="#9a9a9a"/><rect y="14.74" width="12" height="1.17" fill="#f7f7f7"/><rect y="15.91" width="12" height="0.48" fill="#9a9a9a"/><rect y="16.38" width="12" height="1.33" fill="#f7f7f7"/><rect y="17.71" width="12" height="3.39" fill="#6b6b6b"/><rect y="21.1" width="12" height="1.43" fill="#f7f7f7"/><rect y="22.54" width="12" height="0.42" fill="#c9c9c9"/><rect y="22.96" width="12" height="0.64" fill="#f7f7f7"/><rect y="23.6" width="12" height="2.49" fill="#6b6b6b"/><rect y="26.09" width="12" height="1.8" fill="#f7f7f7"/><rect y="27.89" width="12" height="3.29" fill="#6b6b6b"/><rect y="31.18" width="12" height="0.4" fill="#f7f7f7"/><rect y="31.28" width="12" height="2.33" fill="#c9c9c9"/><rect y="33.62" width="12" height="1.86" fill="#f7f7f7"/><rect y="35.47" width="12" height="0.4" fill="#c9c9c9"/><rect y="35.53" width="12" height="0.4" fill="#f7f7f7"/><rect y="35.63" width="12" height="2.76" fill="#c9c9c9"/><rect y="38.39" width="12" height="1.33" fill="#f7f7f7"/><rect y="39.72" width="12" height="0.74" fill="#c9c9c9"/><rect y="40.46" width="12" height="0.9" fill="#f7f7f7"/><rect y="41.36" width="12" height="1.8" fill="#9a9a9a"/><rect y="43.16" width="12" height="1.75" fill="#f7f7f7"/><rect y="44.91" width="12" height="2.01" fill="#9a9a9a"/><rect y="46.93" width="12" height="2.81" fill="#f7f7f7"/><rect y="49.74" width="12" height="2.23" fill="#9a9a9a"/><rect y="51.96" width="12" height="2.12" fill="#f7f7f7"/></g>
<rect x="0.4" y="0.4" width="11.2" height="53.28" rx="5.6" ry="5.6" fill="none" stroke="#5b6b82" stroke-width="0.8"/>
</svg>
