<svg xmlns="http://www.w3.org/2000/svg" width="18" height="65.86" viewBox="0 0 18 65.86" role="img" aria-label="Chromosome 6 ideogram">
<title>Chromosome 6 ideogram</title>
<defs><clipPath id="chr6-body"><rect width="18" height="65.86" rx="9" ry="9"/></clipPath></defs>
<g clip-path="url(#chr6-body)"><rect y="0" width="18" height="0.89" fill="#f7f7f7"/><rect y="0.89" width="18" height="0.73" fill="#c9c9c9"/><rect y="1.62" width="18" height="1.12" fill="#f7f7f7"/><rect y="2.74" width="18" height="1.35" fill="#9a9a9a"/><rect y="4.09" width="18" height="0.4" fill="#f7f7f7"/><rect y="4.47" width="18" height="0.69" fill="#c9c9c9"/><rect y="5.17" width="18" height="0.69" fill="#f7f7f7"/><rect y="5.86" width="18" height="3.86" fill="#6b6b6b"/><rect y="9.72" width="18" height="0.73" fill="#f7f7f7"/><rect y="10.45" width="18" height="1.31" fill="#9a9a9a"/><rect y="11.76" width="18" height="0.62" fill="#f7f7f7"/><rect y="12.38" width="18" height="0.54" fill="#c9c9c9"/><rect y="12.92" width="18" height="1.2" fill="#f7f7f7"/><rect y="14.11" width="18" height="1.5" fill="#c9c9c9"/><rect y="15.62" width="18" height="2.2" fill="#f7f7f7"/><rect y="17.81" width="18" height="2.16" fill="#3c3c3c"/><rect y="19.97" width="18" height="0.46" fill="#f7f7f7"/><rect y="20.44" width="18" height="1.62" fill="#3c3c3c"/><rect y="22.06" width="18" height="0.5" fill="#f7f7f7"/><path d="M0,22.56 H18 L9,23.06 Z" fill="#b03a34"/><path d="M9,23.06 L18,24.14 H0 Z" fill="#b03a34"/><rect y="24.14" width="18" height="0.4" fill="#f7f7f7"/><rect y="24.18" width="18" height="2.51" fill="#3c3c3c"/><rect y="26.68" width="18" height="2.31" fill="#f7f7f7"/><rect y="29" width="18" height="3.08" fill="#9a9a9a"/><rect y="32.08" width="18" height="0.4" fill="#f7f7f7"/><rect y="32.47" width="18" height="1.2" fill="#9a9a9a"/><rect y="33.66" width="18" height="2.01" fill="#f7f7f7"/><rect y="35.67" width="18" height="2.47" fill="#3c3c3c"/><rect y="38.13" width="18" height="0.42" fill="#f7f7f7"/><rect y="38.56" width="18" height="1.93" fill="#3c3c3c"/><rect y="40.49" width="18" height="3.55" fill="#f7f7f7"/><rect y="44.03" width="18" height="1.43" fill="#6b6b6b"/><rect y="45.46" width="18" height="0.4" fill="#f7f7f7"/><rect y="45.54" width="18" height="2.97" fill="#3c3c3c"/><rect y="48.51" width="18" height="0.4" fill="#f7f7f7"/><rect y="48.89" width="18" height="1.23" fill="#6b6b6b"/><rect y="50.13" width="18" height="0.4" fill="#f7f7f7"/><rect y="50.47" width="18" height="1.47" fill="#9a9a9a"/><rect y="51.94" width="18" height="1.39" fill="#f7f7f7"/><rect y="53.33" width="18" height="1.5" fill="#6b6b6b"/><rect y="54.83" width="18" height="1.12" fill="#f7f7f7"/><rect y="55.95" width="18" height="1.31" fill="#6b6b6b"/><rect y="57.26" width="18" height="1.39" fill="#f7f7f7"/><rect y="58.65" width="18" height="1.2" fill="#9a9a9a"/><rect y="59.84" width="18" height="2.08" fill="#f7f7f7"/><rect y="61.92" width="18" height="1.35" fill="#9a9a9a"/><rect y="63.27" width="18" height="2.59" fill="#f7f7f7"/></g>
<rect x="0.5" y="0.5" width="17" height="64.86" rx="8.5" ry="8.5" fill="none" stroke="#5b6b82" stroke-width="1"/>
</svg>
