<svg xmlns="http://www.w3.org/2000/svg" width="12" height="82.73" viewBox="0 0 12 82.73" role="img" aria-label="Chromosome X ideogram">
<title>Chromosome X ideogram</title>
<defs><clipPath id="chrX-body"><rect width="12" height="82.73" rx="6" ry="6"/></clipPath></defs>
<g clip-path="url(#chrX-body)"><rect y="0" width="12" height="2.33" fill="#f7f7f7"/><rect y="2.33" width="12" height="0.9" fill="#9a9a9a"/><rect y="3.23" width="12" height="1.86" fill="#f7f7f7"/><rect y="5.09" width="12" height="4.14" fill="#9a9a9a"/><rect y="9.23" width="12" height="0.95" fill="#f7f7f7"/><rect y="10.18" width="12" height="1.43" fill="#9a9a9a"/><rect y="11.61" width="12" height="1.59" fill="#f7f7f7"/><rect y="13.2" width="12" height="2.33" fill="#3c3c3c"/><rect y="15.53" width="12" height="1.17" fill="#f7f7f7"/><rect y="16.7" width="12" height="3.34" fill="#3c3c3c"/><rect y="20.04" width="12" height="2.49" fill="#f7f7f7"/><rect y="22.53" width="12" height="2.7" fill="#6b6b6b"/><rect y="25.24" width="12" height="1.33" fill="#f7f7f7"/><rect y="26.56" width="12" height="2.49" fill="#c9c9c9"/><rect y="29.05" width="12" height="1.75" fill="#f7f7f7"/><path d="M0,30.8 H12 L6,32.34 Z" fill="#b03a34"/><path d="M6,32.34 L12,33.82 H0 Z" fill="#b03a34"/><rect y="33.83" width="12" height="0.85" fill="#f7f7f7"/><rect y="34.67" width="12" height="1.64" fill="#9a9a9a"/><rect y="36.32" width="12" height="2.39" fill="#f7f7f7"/><rect y="38.7" width="12" height="0.9" fill="#9a9a9a"/><rect y="39.6" width="12" height="1.11" fill="#f7f7f7"/><rect y="40.72" width="12" height="4.56" fill="#3c3c3c"/><rect y="45.28" width="12" height="0.85" fill="#f7f7f7"/><rect y="46.13" width="12" height="3.02" fill="#3c3c3c"/><rect y="49.15" width="12" height="0.85" fill="#f7f7f7"/><rect y="50" width="12" height="2.54" fill="#6b6b6b"/><rect y="52.54" width="12" height="2.23" fill="#f7f7f7"/><rect y="54.77" width="12" height="0.64" fill="#9a9a9a"/><rect y="55.4" width="12" height="2.6" fill="#f7f7f7"/><rect y="58" width="12" height="4.24" fill="#6b6b6b"/><rect y="62.24" width="12" height="2.33" fill="#f7f7f7"/><rect y="64.58" width="12" height="4.08" fill="#3c3c3c"/><rect y="68.66" width="12" height="0.95" fill="#f7f7f7"/><rect y="69.61" width="12" height="1.7" fill="#c9c9c9"/><rect y="71.31" width="12" height="2.33" fill="#f7f7f7"/><rect y="73.64" width="12" height="1.22" fill="#6b6b6b"/><rect y="74.86" width="12" height="0.95" fill="#f7f7f7"/><rect y="75.82" width="12" height="2.65" fill="#3c3c3c"/><rect y="78.47" width="12" height="4.26" fill="#f7f7f7"/></g>
<rect x="0.4" y="0.4" width="11.2" height="81.93" rx="5.6" ry="5.6" fill="none" stroke="#5b6b82" stroke-width="0.8"/>
</svg>
